<svg xmlns="http://www.w3.org/2000/svg" width="287.77" height="35" viewBox="0 0 287.77 35"><rect class="svg__rect" x="0" y="0" width="153.63" height="35" fill="#EA4560"/><rect class="svg__rect" x="151.63" y="0" width="136.14000000000001" height="35" fill="#C13B3A"/><path class="svg__text" d="M15.70 22L14.22 22L14.22 13.47L15.70 13.47L19.51 19.54L19.51 13.47L20.98 13.47L20.98 22L19.50 22L15.70 15.95L15.70 22ZM25.46 18.00L25.46 18.00L25.46 17.52Q25.46 16.28 25.90 15.32Q26.34 14.37 27.15 13.86Q27.95 13.35 28.99 13.35Q30.04 13.35 30.84 13.85Q31.65 14.35 32.09 15.29Q32.53 16.23 32.53 17.48L32.53 17.48L32.53 17.96Q32.53 19.21 32.10 20.16Q31.67 21.10 30.86 21.61Q30.06 22.12 29.01 22.12L29.01 22.12Q27.97 22.12 27.16 21.61Q26.35 21.10 25.90 20.17Q25.46 19.23 25.46 18.00ZM26.94 17.46L26.94 17.96Q26.94 19.36 27.49 20.13Q28.03 20.90 29.01 20.90L29.01 20.90Q29.99 20.90 30.52 20.15Q31.05 19.40 31.05 17.96L31.05 17.96L31.05 17.51Q31.05 16.09 30.52 15.34Q29.98 14.58 28.99 14.58L28.99 14.58Q28.03 14.58 27.49 15.33Q26.95 16.09 26.94 17.46L26.94 17.46ZM38.68 14.66L36.04 14.66L36.04 13.47L42.81 13.47L42.81 14.66L40.15 14.66L40.15 22L38.68 22L38.68 14.66ZM54.02 22L52.54 22L52.54 13.47L54.47 13.47L56.93 20.01L59.38 13.47L61.30 13.47L61.30 22L59.82 22L59.82 19.19L59.97 15.43L57.45 22L56.39 22L53.87 15.43L54.02 19.19L54.02 22ZM66.82 22L65.28 22L68.50 13.47L69.83 13.47L73.06 22L71.51 22L70.81 20.01L67.51 20.01L66.82 22ZM69.16 15.28L67.92 18.82L70.40 18.82L69.16 15.28ZM79.47 22L77.01 22L77.01 13.47L79.53 13.47Q80.66 13.47 81.54 13.97Q82.41 14.48 82.89 15.40Q83.38 16.33 83.38 17.52L83.38 17.52L83.38 17.95Q83.38 19.16 82.89 20.08Q82.41 21.00 81.52 21.50Q80.62 22 79.47 22L79.47 22ZM78.49 14.66L78.49 20.82L79.46 20.82Q80.63 20.82 81.25 20.09Q81.88 19.36 81.89 17.99L81.89 17.99L81.89 17.52Q81.89 16.13 81.28 15.40Q80.68 14.66 79.53 14.66L79.53 14.66L78.49 14.66ZM93.42 22L87.84 22L87.84 13.47L93.38 13.47L93.38 14.66L89.32 14.66L89.32 17.02L92.83 17.02L92.83 18.19L89.32 18.19L89.32 20.82L93.42 20.82L93.42 22ZM104.97 22L103.00 13.47L104.47 13.47L105.80 19.88L107.43 13.47L108.67 13.47L110.28 19.89L111.59 13.47L113.06 13.47L111.10 22L109.68 22L108.06 15.77L106.40 22L104.97 22ZM118.70 22L117.22 22L117.22 13.47L118.70 13.47L118.70 22ZM125.19 14.66L122.56 14.66L122.56 13.47L129.32 13.47L129.32 14.66L126.66 14.66L126.66 22L125.19 22L125.19 14.66ZM134.56 22L133.08 22L133.08 13.47L134.56 13.47L134.56 17.02L138.38 17.02L138.38 13.47L139.85 13.47L139.85 22L138.38 22L138.38 18.21L134.56 18.21L134.56 22Z" fill="#FFFFFF"/><path class="svg__text" d="M167.61 15.48L165.03 15.48L165.03 13.60L172.55 13.60L172.55 15.48L169.98 15.48L169.98 22L167.61 22L167.61 15.48ZM179.05 18.95L175.84 13.60L178.35 13.60L180.34 16.94L182.34 13.60L184.64 13.60L181.42 18.99L181.42 22L179.05 22L179.05 18.95ZM191.10 22L188.72 22L188.72 13.60L192.57 13.60Q193.70 13.60 194.54 13.98Q195.38 14.35 195.84 15.06Q196.30 15.76 196.30 16.71L196.30 16.71Q196.30 17.66 195.84 18.35Q195.38 19.05 194.54 19.42Q193.70 19.80 192.57 19.80L192.57 19.80L191.10 19.80L191.10 22ZM191.10 15.47L191.10 17.93L192.42 17.93Q193.15 17.93 193.52 17.61Q193.90 17.29 193.90 16.71L193.90 16.71Q193.90 16.12 193.52 15.80Q193.15 15.47 192.42 15.47L192.42 15.47L191.10 15.47ZM207.79 22L201.05 22L201.05 13.60L207.64 13.60L207.64 15.44L203.41 15.44L203.41 16.85L207.14 16.85L207.14 18.63L203.41 18.63L203.41 20.17L207.79 20.17L207.79 22ZM212.01 21.24L212.01 21.24L212.79 19.49Q213.35 19.86 214.10 20.09Q214.84 20.32 215.56 20.32L215.56 20.32Q216.93 20.32 216.94 19.64L216.94 19.64Q216.94 19.28 216.55 19.11Q216.16 18.93 215.29 18.74L215.29 18.74Q214.34 18.53 213.70 18.30Q213.07 18.06 212.61 17.55Q212.16 17.03 212.16 16.16L212.16 16.16Q212.16 15.39 212.58 14.77Q213.00 14.15 213.83 13.79Q214.67 13.43 215.87 13.43L215.87 13.43Q216.70 13.43 217.51 13.62Q218.31 13.80 218.93 14.17L218.93 14.17L218.19 15.93Q216.99 15.28 215.86 15.28L215.86 15.28Q215.15 15.28 214.83 15.49Q214.51 15.70 214.51 16.04L214.51 16.04Q214.51 16.37 214.89 16.54Q215.28 16.71 216.13 16.89L216.13 16.89Q217.09 17.10 217.72 17.33Q218.35 17.56 218.81 18.07Q219.27 18.58 219.27 19.46L219.27 19.46Q219.27 20.21 218.85 20.83Q218.44 21.44 217.59 21.80Q216.75 22.17 215.55 22.17L215.55 22.17Q214.53 22.17 213.57 21.92Q212.61 21.67 212.01 21.24ZM223.42 17.80L223.42 17.80Q223.42 16.54 224.02 15.54Q224.62 14.55 225.67 13.99Q226.72 13.43 228.04 13.43L228.04 13.43Q229.19 13.43 230.12 13.84Q231.04 14.25 231.65 15.02L231.65 15.02L230.14 16.39Q229.33 15.40 228.16 15.40L228.16 15.40Q227.48 15.40 226.94 15.70Q226.41 16 226.11 16.54Q225.82 17.09 225.82 17.80L225.82 17.80Q225.82 18.51 226.11 19.05Q226.41 19.60 226.94 19.90Q227.48 20.20 228.16 20.20L228.16 20.20Q229.33 20.20 230.14 19.22L230.14 19.22L231.65 20.58Q231.04 21.35 230.12 21.76Q229.19 22.17 228.04 22.17L228.04 22.17Q226.72 22.17 225.67 21.61Q224.62 21.05 224.02 20.05Q223.42 19.06 223.42 17.80ZM238.57 22L236.19 22L236.19 13.60L240.03 13.60Q241.18 13.60 242.01 13.98Q242.85 14.35 243.31 15.06Q243.77 15.76 243.77 16.71L243.77 16.71Q243.77 17.62 243.34 18.30Q242.91 18.98 242.12 19.36L242.12 19.36L243.93 22L241.39 22L239.86 19.77L238.57 19.77L238.57 22ZM238.57 15.47L238.57 17.93L239.89 17.93Q240.62 17.93 240.99 17.61Q241.36 17.29 241.36 16.71L241.36 16.71Q241.36 16.12 240.99 15.79Q240.62 15.47 239.89 15.47L239.89 15.47L238.57 15.47ZM250.93 22L248.55 22L248.55 13.60L250.93 13.60L250.93 22ZM258.48 22L256.11 22L256.11 13.60L259.95 13.60Q261.09 13.60 261.93 13.98Q262.77 14.35 263.22 15.06Q263.68 15.76 263.68 16.71L263.68 16.71Q263.68 17.66 263.22 18.35Q262.77 19.05 261.93 19.42Q261.09 19.80 259.95 19.80L259.95 19.80L258.48 19.80L258.48 22ZM258.48 15.47L258.48 17.93L259.80 17.93Q260.53 17.93 260.91 17.61Q261.28 17.29 261.28 16.71L261.28 16.71Q261.28 16.12 260.91 15.80Q260.53 15.47 259.80 15.47L259.80 15.47L258.48 15.47ZM270.23 15.48L267.64 15.48L267.64 13.60L275.17 13.60L275.17 15.48L272.60 15.48L272.60 22L270.23 22L270.23 15.48Z" fill="#FFFFFF" x="164.63"/></svg>